Coordinates
version=1
nRows=8
nColumns=63
inDegrees=yes

Units are S.I. units (second, meters, Newtons, ...)
If the header above contains a line with 'inDegrees', this indicates whether rotational values are in degrees (yes) or radians (no).

endheader
time	pelvis_tilt	pelvis_list	pelvis_rotation	pelvis_tx	pelvis_ty	pelvis_tz	hip_flexion_r	hip_adduction_r	hip_rotation_r	knee_angle_r	knee_angle_r_beta	ankle_angle_r	subtalar_angle_r	mtp_angle_r	hip_flexion_l	hip_adduction_l	hip_rotation_l	knee_angle_l	knee_angle_l_beta	ankle_angle_l	subtalar_angle_l	mtp_angle_l	L5_S1_Flex_Ext	L5_S1_Lat_Bending	L5_S1_axial_rotation	L4_L5_Flex_Ext	L4_L5_Lat_Bending	L4_L5_axial_rotation	L3_L4_Flex_Ext	L3_L4_Lat_Bending	L3_L4_axial_rotation	L2_L3_Flex_Ext	L2_L3_Lat_Bending	L2_L3_axial_rotation	L1_L2_Flex_Ext	L1_L2_Lat_Bending	L1_L2_axial_rotation	L1_T12_Flex_Ext	L1_T12_Lat_Bending	L1_T12_axial_rotation	Abs_r3	Abs_r2	Abs_r1	Abs_t1	Abs_t2	neck_flexion	neck_bending	neck_rotation	arm_flex_r	arm_add_r	arm_rot_r	elbow_flex_r	pro_sup_r	wrist_flex_r	wrist_dev_r	arm_flex_l	arm_add_l	arm_rot_l	elbow_flex_l	pro_sup_l	wrist_flex_l	wrist_dev_l
      2.47368421	     -0.29837097	     -3.85484968	     88.68723337	      0.20139764	      0.67782937	      0.81138455	      5.31244300	     -1.03542866	      0.54470991	      4.73934058	      0.08271710	     23.36409013	     11.22593055	      0.00000000	      3.52171928	      0.22974696	     -3.02282096	      1.36083579	      0.02375107	     20.73446221	     -0.40533793	      0.00000000	     -0.02449577	     -0.05094959	      0.25937559	     -0.04549109	     -0.06776295	      0.27558657	     -0.04024409	     -0.12387882	      0.27558657	     -0.02799621	     -0.12387882	      0.22695364	     -0.02274677	     -0.10389640	      0.21074267	     -0.01399688	     -0.07892091	      0.19453169	     -0.17497080	     -0.57635191	      1.44256922	      0.00000000	      0.00000000	     27.76546559	      5.92626323	     -5.82875198	     10.95700471	     -6.17143473	     47.64023365	     45.88177070	     24.89802286	     -3.04738800	     15.05417172	     15.15139485	     -5.42463591	     52.40901539	     48.88296680	     55.35223572	     -3.08139620	      8.22932708
      2.49122807	     -0.39628594	     -3.75089561	     88.43536882	      0.20297495	      0.67771089	      0.81043090	      4.92482063	     -0.99855400	      1.64986635	      4.26114422	      0.07437100	     23.22378089	     10.18834865	      0.00000000	      3.26196968	      0.25774244	     -3.51686037	      1.33579591	      0.02331404	     20.79673819	     -0.09040486	      0.00000000	     -0.01990088	     -0.06664407	      0.37258463	     -0.03695793	     -0.08863661	      0.39587117	     -0.03269516	     -0.16203838	      0.39587117	     -0.02274472	     -0.16203838	      0.32601155	     -0.01847996	     -0.13590058	      0.30272501	     -0.01137136	     -0.10323166	      0.27943847	     -0.14215002	     -0.75389100	      2.07220395	      0.00000000	      0.00000000	     27.76497498	      5.88845749	     -5.68939305	     11.16631763	     -6.42273847	     48.68573300	     45.88075542	     26.24986373	     -2.12730555	     13.87998631	     14.88146029	     -5.31756801	     51.19879151	     49.14660545	     57.26236488	     -2.69392567	      8.76961046
      2.50877193	     -0.41745523	     -3.67689881	     88.95320146	      0.20360209	      0.67761100	      0.80944424	      4.43505344	     -0.96964066	      1.30074285	      3.68893147	      0.06438400	     23.19989736	     10.14718277	      0.00000000	      3.11840700	      0.23211612	     -3.51576215	      1.36417849	      0.02380941	     20.80863742	      0.59073818	      0.00000000	     -0.01250749	     -0.07353688	      0.38029267	     -0.02322767	     -0.09780405	      0.40406097	     -0.02054856	     -0.17879756	      0.40406097	     -0.01429481	     -0.17879756	      0.33275609	     -0.01161446	     -0.14995640	      0.30898780	     -0.00714678	     -0.11390862	      0.28521951	     -0.08933978	     -0.83186385	      2.11507376	      0.00000000	      0.00000000	     27.72314384	      5.77583705	     -5.73552798	     11.14722606	     -6.62105945	     49.11519742	     46.07953543	     28.29898062	     -2.09294343	     13.14879643	     14.96166597	     -5.28609289	     51.33015456	     49.25923544	     56.79038047	     -2.76857337	      8.64346488
      2.52631579	     -0.45180146	     -3.45397674	     88.91305165	      0.20486695	      0.67766221	      0.80818584	      3.67275955	     -0.81715562	      4.86961878	      2.79397454	      0.04876405	     22.43247495	      5.55390901	      0.00000000	      2.69312271	      0.21398165	     -3.94063133	      1.27956975	      0.02233271	     20.81558454	      1.02716292	      0.00000000	     -0.02965527	     -0.07791311	      0.47932850	     -0.05507279	     -0.10362444	      0.50928653	     -0.04872064	     -0.18943794	      0.50928653	     -0.03389300	     -0.18943794	      0.41941244	     -0.02753788	     -0.15888042	      0.38945441	     -0.01694502	     -0.12068741	      0.35949638	     -0.21182460	     -0.88136871	      2.66588132	      0.00000000	      0.00000000	     27.64309870	      5.50151760	     -5.86171814	     11.24688004	     -6.85719642	     49.83274783	     45.98028125	     32.79830101	     -1.08876237	     11.88525453	     14.56337875	     -4.92323013	     49.73275376	     49.25939993	     60.14874882	     -2.06134415	      9.16753544
      2.54385965	     -0.50792334	     -3.28889703	     89.13949589	      0.20582155	      0.67769808	      0.80718842	      3.22115772	     -0.82738396	      4.60952525	      2.42592659	      0.04234041	     22.52406189	      5.83280855	      0.00000000	      2.42356245	      0.20097147	     -4.41852151	      1.25588161	      0.02191927	     20.95535656	      2.05539263	      0.00000000	     -0.04333895	     -0.08770474	      0.54043962	     -0.08048476	     -0.11664730	      0.57421709	     -0.07120156	     -0.21324531	      0.57421709	     -0.04953209	     -0.21324531	      0.47288467	     -0.04024455	     -0.17884751	      0.43910719	     -0.02476388	     -0.13585464	      0.40532971	     -0.30956579	     -0.99213357	      3.00576302	      0.00000000	      0.00000000	     27.49684246	      5.27791959	     -6.31048238	     11.24083231	     -6.98422957	     50.15616085	     45.97896293	     36.19554953	     -0.46261752	     11.13608319	     14.65222472	     -4.83476715	     50.12027432	     49.21357636	     60.54168231	     -2.29320875	      8.69411140
      2.56140351	     -0.49286839	     -3.21415308	     89.54946767	      0.20640043	      0.67753089	      0.80571164	      2.57678649	     -0.69999981	      8.00606497	      1.58706578	      0.02769952	     21.50431382	      0.71431603	      0.00000000	      2.24724054	      0.14468698	     -4.05150095	      1.19687357	      0.02088938	     21.14259897	      2.12105886	      0.00000000	     -0.03828457	     -0.09075507	      0.52178529	     -0.07109828	     -0.12070425	      0.55439687	     -0.06289773	     -0.22066188	      0.55439687	     -0.04375544	     -0.22066188	      0.45656213	     -0.03555106	     -0.18506774	      0.42395055	     -0.02187581	     -0.14057961	      0.39133896	     -0.27346289	     -1.02663952	      2.90201323	      0.00000000	      0.00000000	     27.26246393	      5.62227290	     -6.52573205	     10.91994349	     -6.66080730	     45.97494372	     45.16812216	     75.75546559	      4.54692649	      7.42124421	     14.05229511	     -4.54612934	     48.66648976	     49.25899048	     63.46595265	     -1.53729416	      8.86861370
      2.57894737	     -0.55201423	     -2.99321106	     89.89715883	      0.20702836	      0.67773873	      0.80483075	      2.18671881	     -0.73363623	      6.58099082	      1.48314883	      0.02588583	     21.85589864	      2.39178759	      0.00000000	      1.96969451	      0.15154717	     -4.07110560	      1.12426467	      0.01962212	     21.38401397	      2.76926232	      0.00000000	     -0.06479559	     -0.10398250	      0.49018824	     -0.12033189	     -0.13829673	      0.52082500	     -0.10645267	     -0.25282306	      0.52082500	     -0.07405488	     -0.25282306	      0.42891471	     -0.06016918	     -0.21204112	      0.39827794	     -0.03702420	     -0.16106890	      0.36764118	     -0.46282840	     -1.17627086	      2.72627992	      0.00000000	      0.00000000	     27.01004773	      5.97037434	     -6.72657208	     11.03461949	     -6.74944283	     46.82369949	     45.34468391	     73.95950939	      4.28139395	      7.62341313	     13.98508558	     -4.57546054	     49.04709852	     49.25950895	     62.59489869	     -1.94660788	      8.28340054
      2.59649123	     -0.59071718	     -3.01004760	     89.80787934	      0.20801570	      0.67764579	      0.80419051	      2.07936674	     -0.69217537	      7.76508674	      1.31337887	      0.02292279	     21.53912517	      0.87093015	      0.00000000	      1.94947382	      0.14467557	     -4.19706866	      1.03486152	      0.01806174	     21.59543851	      2.80601881	      0.00000000	     -0.05327761	     -0.11148511	      0.45918121	     -0.09894185	     -0.14827519	      0.48788003	     -0.08752978	     -0.27106489	      0.48788003	     -0.06089098	     -0.27106489	      0.40178356	     -0.04947359	     -0.22734043	      0.37308473	     -0.03044283	     -0.17269043	      0.34438590	     -0.38055664	     -1.26114182	      2.55382812	      0.00000000	      0.00000000	     26.69398985	      6.36313878	     -6.58078587	     11.38330679	     -6.70327176	     46.74167441	     45.23091979	     86.18883689	      5.35923618	      5.61779217	     13.29541306	     -4.50251527	     47.52265520	     49.46583550	     65.68226781	     -1.51567152	      8.24012737
